<svg xmlns="http://www.w3.org/2000/svg" viewBox="0 0 512 512" role="img" aria-label="Appunti Archivio">
  <defs>
    <linearGradient id="bg" x1="0%" y1="0%" x2="100%" y2="100%">
      <stop offset="0%" stop-color="#1a4fd6"/>
      <stop offset="45%" stop-color="#3d7cf5"/>
      <stop offset="100%" stop-color="#7eb8ff"/>
    </linearGradient>
    <linearGradient id="shine" x1="0%" y1="0%" x2="0%" y2="100%">
      <stop offset="0%" stop-color="#ffffff" stop-opacity="0.55"/>
      <stop offset="100%" stop-color="#ffffff" stop-opacity="0"/>
    </linearGradient>
    <filter id="shadow" x="-20%" y="-20%" width="140%" height="140%">
      <feDropShadow dx="0" dy="18" stdDeviation="22" flood-color="#0b1f4a" flood-opacity="0.35"/>
    </filter>
  </defs>
  <rect width="512" height="512" rx="112" fill="url(#bg)" filter="url(#shadow)"/>
  <rect width="512" height="256" rx="112" fill="url(#shine)"/>
  <g fill="none" stroke="#ffffff" stroke-linecap="round" stroke-linejoin="round">
    <path d="M176 300c0-44 36-80 80-80h16c35 0 64 29 64 64s-29 64-64 64h-48" stroke-width="34"/>
    <path d="M176 300V220c0-44 36-80 80-80h16c35 0 64 29 64 64" stroke-width="34"/>
    <path d="M300 168h40c44 0 80 36 80 80v20" stroke-width="28" opacity="0.92"/>
    <path d="M148 332h216" stroke-width="22" opacity="0.35"/>
    <path d="M168 364h176" stroke-width="18" opacity="0.22"/>
    <path d="M188 396h136" stroke-width="14" opacity="0.14"/>
  </g>
</svg>